<?xml version="1.0" encoding="utf-8"?>
<!-- Generator: Adobe Illustrator 24.3.0, SVG Export Plug-In . SVG Version: 6.00 Build 0)  -->
<svg version="1.1" xmlns="http://www.w3.org/2000/svg" xmlns:xlink="http://www.w3.org/1999/xlink" x="0px" y="0px"
	 viewBox="0 0 595.28 140.94" style="enable-background:new 0 0 595.28 140.94;" xml:space="preserve">
<style type="text/css">
	.st0{display:none;}
	.st1{fill:#FAB420;}
	.st2{fill:#8759A1;}
	.st3{fill:#EB5B5E;}
	.st4{fill:#69C2BD;}
	.st5{fill:#60B55E;}
</style>
<g id="Слой_1" class="st0">
</g>
<g id="Слой_2" class="st0">
</g>
<g id="Слой_3">
	<g id="Слой_4" class="st0">
	</g>
	<g>
		<path class="st1" d="M85.79,34.64c3.33,3.37,6.66,6.73,9.99,10.1c-0.2,6.31-0.39,12.63-0.59,18.94c-1.05-1.23-3.97-4.34-8.84-5.47
			c-2.75-0.64-5.11-0.41-6.59-0.14c-13.37,0.46-16.88,2.88-17.54,5.05c-0.4,1.32,0.06,3.18-1.26,6.03c-0.9,1.94-1.68,2.31-1.82,3.93
			c-0.23,2.55,1.45,4.52,1.54,4.63c0.55,0.62,1.12,1.02,1.54,1.26c-0.05,2.53-0.09,5.05-0.14,7.58c-1.49-0.7-4.19-2.22-6.45-5.19
			c-2.2-2.89-2.86-5.69-3.23-7.3c-0.6-2.65-1.75-10.05,2.81-16.98c1.03-1.56,3.46-5.22,8.28-7.3c4.25-1.83,8.03-1.44,9.54-1.26
			c6.82,0.8,11.2,4.96,12.63,6.45C85.69,48.2,85.74,41.42,85.79,34.64z"/>
		<path class="st2" d="M85.93,61.86c3.28,3.23,6.56,6.45,9.85,9.68c-0.29,13.84-0.58,27.68-0.87,41.53
			c-1.71,0.61-4.05,1.32-6.87,1.82c-8.06,1.43-14.44,0.13-16.27-0.28c-2.1-0.47-8.61-2.11-15.43-7.15c-4.47-3.3-7.44-6.86-9.26-9.4
			c1.5,1.32,3.17,2.55,5.05,3.65c13.11,7.65,28.08,3.8,33.59,2.07C85.78,89.8,85.85,75.83,85.93,61.86z"/>
		<g>
			<path class="st3" d="M246.49,104.93c0-24.13,0-48.26,0-72.39c3.11,3.19,6.22,6.38,9.33,9.57v73.37h-14.58l-0.11-0.21l-0.15,0.21
				l-9.64-10.34h4.41"/>
			<path class="st3" d="M246.49,104.93"/>
			<path class="st3" d="M227.62,55.54c-2.03-4.1-4.05-8.2-6.08-12.3c-3.4-3.29-6.79-6.58-10.19-9.87c5,8.96,10.01,17.91,15.01,26.87
				"/>
			<path class="st3" d="M222.85,89.78v25.7h-17.12v-0.16l-0.11,0.16l-9.64-10.34c5.68,0.07,11.36,0.14,17.05,0.21
				c0.05-10.24,0.11-20.47,0.16-30.71"/>
		</g>
		<path class="st3" d="M430.41,104.93c-11.29,0.07-22.59,0.14-33.88,0.21c-3.33,0-6.66,0-10,0l9.64,10.34l0.36-0.53v0.53h17.26
			v-0.01h25.88v-15.43c-3.02-3.35-6.03-6.7-9.05-10.05"/>
		<path class="st3" d="M403.41,57.94h10.38v-0.01h25.88V42.5c-3.02-3.35-6.03-6.7-9.05-10.05c-0.05,5.27-0.09,10.53-0.14,15.8
			c-8.98,0.02-17.96,0.05-26.94,0.07C403.5,51.53,403.46,54.73,403.41,57.94z"/>
		<path class="st2" d="M403.41,86.71h10.38V86.7h25.88V71.27c-3.02-3.35-6.03-6.7-9.05-10.05c-0.05,5.27-0.09,10.53-0.14,15.8
			c-8.98,0.02-17.96,0.05-26.94,0.07C403.5,80.3,403.46,83.5,403.41,86.71z"/>
		<path class="st1" d="M382.86,71.07v0.54c-0.17-0.18-0.33-0.36-0.5-0.54H382.86z"/>
		<path class="st4" d="M269.01,105.14c-3.92,0.06-7.15,0.04-9.36,0l9.36,10.05l0.27,0.29h16.98v-0.04c0.13,0.01,0.26,0.01,0.39,0.02
			c0,0,0.58,0.02,1.16,0.02c16.46,0,27.35-10.97,27.35-10.97c1.32-1.33,10.85-11.23,10.67-25.71
			c-0.22-17.81-14.99-31.24-15.72-30.82c-0.1,0.06,0.68,2.1,2.24,6.17c1.45,3.78,2.32,5.68,2.53,6.45
			c2.02,7.52,0.68,13.76,0.14,16.13c-2,8.78-6.87,14.5-9.12,16.83c-0.87,0.91-8.23,8.37-19.78,10.66
			C282.66,104.91,278.11,104.99,269.01,105.14z"/>
		<path class="st3" d="M491.16,72.87c0.96,0.74,2.27,1.82,3.72,3.23c1.83,1.77,3.45,3.35,4.84,5.61c0.48,0.79,2.48,4.17,2.88,9.08
			c0.13,1.55,0.37,5.43-1.54,9.82c-0.28,0.64-1.57,3.47-4.49,6.31c-3.62,3.54-7.49,4.84-10.8,6.03c-7.14,2.58-13.45,2.4-18.8,2.24
			c-3.85-0.11-7.01-0.51-9.12-0.84v-0.29l-0.1,0.15c-2.85-3.06-5.71-6.12-8.56-9.19c3.21-0.01,6.43-0.02,9.64-0.03
			c4.35,0.57,7.97,0.3,10.45-0.07c1.04-0.15,3.66-0.59,6.87-1.68c1.44-0.49,3.16-1.09,5.26-2.24c1.34-0.74,3.74-2.09,6.17-4.63
			c0.87-0.91,2.34-2.47,3.58-4.91c0.3-0.59,1.7-3.41,2.03-7.44C493.62,78.98,492.13,74.97,491.16,72.87z"/>
		<path class="st2" d="M191.99,42.11v73.37h-17.26v-0.92l-0.63,0.92l-9.64-10.34c5.88,0.07,11.75,0.14,17.63,0.21
			c0.14-24.48,0.28-48.96,0.42-73.44C185.68,35.31,188.83,38.71,191.99,42.11z"/>
		<path class="st4" d="M129,59.05c0.11-1.82,0.03-3.67-0.98-5.47c-2.88-5.14-10.71-5.32-12.04-5.33c0.08,19.03,0.17,38.07,0.25,57.1
			c-5.54-0.07-11.08-0.14-16.62-0.21l9.64,10.34h17.26c0-3.24,0-6.47,0-9.71c-1.51-2.06-3.01-4.12-4.52-6.17
			c-3.64-7.38-3.61-12.83-2.81-16.55C121.06,74.33,128.33,69.79,129,59.05z"/>
		<path class="st2" d="M277.43,48.32c-0.04,12.28-0.07,24.55-0.11,36.83c-0.33,2.14,0.04,3.13,0.63,3.58
			c2.58,1.96,11.23-1.53,11.36-5.58c0.03-0.87-0.35-1.66-0.84-2.31c-0.6-0.14-1.19-0.28-1.79-0.42c0.07-7.37,0.14-14.73,0.21-22.1
			c2.46,0,4.91,0,7.37,0c-0.78-1.29-1.83-2.73-3.26-4.1C286.07,49.45,280,48.54,277.43,48.32z"/>
		<path class="st4" d="M346.14,60.53c-0.04-4-0.08-8-0.12-12c9.01-0.06,18.03-0.12,27.04-0.18c-0.01-1.94-0.02-3.88-0.02-5.82
			c0-3.36,0-6.7,0.02-10.03c3.11,3.28,6.21,6.63,9.28,10.03c0.17,0.19,0.34,0.37,0.5,0.56V58.5h-26.52"/>
		<path class="st1" d="M373.05,71.07c-0.08-3.49,0.06-6.71,0.33-9.63c2.99,3.21,5.98,6.42,8.97,9.63c0.17,0.18,0.33,0.36,0.5,0.54
			V86.5h-26.52v28.98h-17.19l-0.06-0.07l-9.57-10.27h9.57c2.41-0.07,4.82-0.14,7.23-0.21c-0.09-9.35-0.19-18.71-0.28-28.06
			c9.12-0.05,18.24-0.09,27.36-0.14C373.22,74.94,373.1,73.05,373.05,71.07z"/>
		<path class="st5" d="M470.82,78.31c-1.01-0.17-2.55-0.49-4.37-1.05c-1.47-0.46-3.8-1.29-10.68-5.1c-1.23-0.68-2.91-1.62-4.89-2.79
			c0.52,0.71,1.36,1.79,2.47,3.05c5.01,5.64,10.25,8.61,12.39,9.73c1.26,0.66,3.11,1.54,5.44,2.37
			C471.06,82.45,470.94,80.38,470.82,78.31z"/>
		<path class="st5" d="M474.4,61.89c1.18-0.92,3.09-2.18,5.68-3.05c0.68-0.23,3.54-1.14,7.37-0.95c5.17,0.27,9.02,2.41,10.94,3.68
			c0-6.28,0-12.56,0-18.83c-3.12-3.05-6.24-6.1-9.36-9.15c-0.07,6.14-0.14,12.28-0.21,18.41c-1.14-0.9-2.9-2.08-5.26-2.95
			c-5.77-2.12-10.87-0.78-12.42-0.32c-6.32,1.91-9.67,6.39-10.63,7.79c0.61,0.89,3.68,5.13,9.05,5.79
			C471.53,62.56,473.22,62.24,474.4,61.89z"/>
		<path class="st5" d="M522.8,105.35c3.18,3.27,6.36,6.55,9.54,9.82c5.71,0,11.41,0,17.12,0c-0.05-18.99-0.09-37.97-0.14-56.96
			c5.56,0,11.13,0,16.69,0c-0.05-5.38-0.09-10.76-0.14-16.13c-3.32-3.18-6.64-6.36-9.96-9.54c0,5.19,0,10.38,0,15.57
			c-5.47-0.05-10.94-0.09-16.41-0.14c0.14,19.22,0.28,38.44,0.42,57.66C534.21,105.54,528.5,105.44,522.8,105.35z"/>
		<path class="st2" d="M521.11,48.53c-4.63-0.05-9.26-0.09-13.89-0.14c2.95,3.23,5.89,6.45,8.84,9.68c1.59,0.09,3.18,0.19,4.77,0.28
			C520.93,55.08,521.02,51.8,521.11,48.53z"/>
		<path class="st1" d="M127.74,105.77c2.95,3.13,5.89,6.27,8.84,9.4c7.81,0.05,15.62,0.09,23.43,0.14
			c-0.19-0.24-9.08-11.6-9.08-11.6l0,0c0,0-6.83-8.73-8.04-10.28c0.75-0.32,1.82-0.79,3.09-1.4c0.99-0.48,4.03-1.96,6.03-3.37
			c3.67-2.57,5.5-5.96,6.45-7.72c2.21-4.08,2.71-7.69,2.81-8.42c1.13-8.83-3.56-15.76-5.33-18.38c-2.91-4.3-6.44-7.27-9.54-9.26
			c0.85,0.9,1.99,2.29,2.95,4.21c1.97,3.93,1.9,7.54,1.82,10.24c-0.06,1.95-0.24,6.51-2.67,11.36
			c-4.25,8.49-12.32,11.79-14.59,12.63c5.42,7.2,10.85,14.4,16.27,21.6C142.7,105.21,135.22,105.49,127.74,105.77z"/>
		<g>
			<path d="M81.51,50.05c0.07-6.31,0.14-12.63,0.21-18.94c-2.6-0.83-6.53-1.84-11.36-2.1c-4.37-0.24-15.22-0.84-25.46,6.31
				c-1.55,1.08-8.52,6.13-12.63,15.78c-1.24,2.9-3.35,8.88-2.95,16.62c0.41,7.85,3.19,13.38,3.79,14.52
				c3.59,6.91,8.58,10.63,10.73,12.21c1.15,0.84,6.19,4.41,13.89,6.31c10.63,2.62,19.7,0.41,24.2-1.05c0-14.17,0-28.34,0-42.51
				c-8.63,0.02-17.26,0.05-25.88,0.07c0,5.47,0,10.94,0,16.41c2.99,0,5.99,0,8.98,0c-0.12,4.16-0.23,8.32-0.35,12.49
				c-1.39-0.17-3.42-0.58-5.61-1.68c-4.47-2.25-6.65-5.9-7.58-7.51c-4.67-8.07-2.26-16.63-1.75-18.45c0.64-2.27,1.59-5.52,4.49-8.56
				c3.53-3.71,7.7-4.75,8.98-5.05C72.79,42.64,80.63,49.27,81.51,50.05z"/>
			<rect x="161.26" y="28.74" width="17.26" height="73.37"/>
			<polygon points="552.68,28.75 552.68,44.18 536.47,44.18 536.47,102.12 519.22,102.12 519.22,44.18 502.87,44.18 502.87,28.75 
							"/>
			<polygon points="342.87,44.18 342.87,57.71 369.39,57.71 369.39,73.14 342.87,73.14 342.87,102.12 325.62,102.12 325.62,28.74 
				369.39,28.74 369.39,44.18 			"/>
			<polygon points="242.35,28.74 242.35,102.11 227.77,102.11 225.31,97.47 209.38,67.46 209.38,102.11 192.27,102.11 192.27,28.74 
				207.6,28.74 208.12,29.72 225.66,62.77 225.66,28.74 			"/>
			<path d="M274.35,28.75c-0.52,0-1.03,0.01-1.55,0.03v-0.04h-17.26v73.37h17.26v-0.04c0.51,0.02,1.03,0.04,1.55,0.04
				c21,0,38.02-16.43,38.02-36.69C312.36,45.17,295.34,28.75,274.35,28.75z M291.21,73.99c-0.65,1.79-1.58,4.28-3.89,6.73
				c-2.41,2.55-4.97,3.67-5.79,4c-2.2,0.89-4.17,1.11-5.37,1.16c-1.05,0.04-1.95-0.02-2.63-0.11c0-13.71,0-27.43,0-41.14
				c1.53-0.16,4.96-0.29,8.73,1.47c0.73,0.34,4.1,1.99,6.73,5.79c1.75,2.53,2.36,4.83,2.84,6.73
				C292.3,60.45,293.82,66.81,291.21,73.99z"/>
			<path d="M138.99,74.06c1.09-0.92,2.89-2.46,4.49-4.77c2.77-4,3.32-8.03,3.65-10.52c0.27-2.07,0.74-5.96-0.7-10.66
				c-1.44-4.69-4-7.63-5.19-8.98c-3.76-4.24-7.9-6.11-9.96-7.01c-3.71-1.62-6.86-2.13-10.24-2.67c-3.26-0.51-6.01-0.67-8-0.71H95.78
				v73.37h17.26V88.48c3.18,4.5,6.36,9,9.54,13.5c7.86-0.09,15.71-0.19,23.57-0.28c-5.56-7.25-11.13-14.5-16.69-21.75
				c0.98-0.46,2.29-1.1,3.79-1.96C134.75,77.11,136.8,75.92,138.99,74.06z M114.12,66.49c-0.7-0.05-1.31-0.16-1.81-0.28
				c0-7.27,0-14.54,0-21.8c0.59-0.05,1.2-0.08,1.81-0.08c8.14,0,14.74,4.96,14.74,11.08C128.86,61.84,120.36,66.91,114.12,66.49z"/>
			<path d="M485.06,47.97c-0.05-6.08-0.09-12.16-0.14-18.24c-1.85-0.21-4.45-0.46-7.58-0.56c-4.02-0.13-8.12-0.28-12.84,0.5
				c-3.23,0.53-7.3,1.2-11.78,3.73c-2.34,1.32-9.41,5.31-11.72,13.31c-0.4,1.39-1.36,4.88-0.28,9.12c0.98,3.83,3.14,6.24,4.49,7.72
				c3.83,4.18,8.42,6.01,10.66,6.87c1.36,0.52,5.88,2.16,10.66,4.35c0.8,0.37,2.34,1.1,2.95,2.67c0.68,1.77-0.23,3.56-0.42,3.93
				c-0.98,1.93-2.77,2.75-4.49,3.51c-3.6,1.59-6.83,1.57-8.42,1.54c-4.34-0.06-7.42-1.37-8.14-1.68c-1.57-0.69-2.8-1.48-3.65-2.1
				c0,6.13,0,12.25,0,18.38c2.11,0.33,5.27,0.73,9.12,0.84c5.35,0.15,11.66,0.33,18.8-2.24c3.31-1.19,7.18-2.49,10.8-6.03
				c2.92-2.85,4.21-5.67,4.49-6.31c1.87-4.24,1.72-8.06,1.54-9.82c-0.19-1.82-0.62-5.64-3.37-9.12c-1.47-1.85-2.99-2.86-5.05-4.21
				c-2.95-1.94-5.68-3-7.72-3.79c-2.06-0.8-4.61-1.63-5.19-1.82c-2.72-0.89-3.86-1.17-5.33-2.1c-1.47-0.94-2.56-1.5-3.09-2.81
				c-0.7-1.73,0.03-3.4,0.14-3.65c0.2-0.44,0.75-1.47,3.09-2.81c1.97-1.13,3.9-1.73,5.75-2.1c1.9-0.39,4.61-0.94,8.14-0.42
				C480.46,45.19,483.39,46.83,485.06,47.97z"/>
			<polygon points="426.21,28.75 426.21,44.74 400.32,44.74 400.32,57.71 426.21,57.71 426.21,73.15 400.32,73.15 400.32,86.68 
				426.21,86.68 426.21,102.11 400.32,102.11 400.32,102.12 383.07,102.12 383.07,28.74 400.32,28.74 400.32,28.75 			"/>
		</g>
	</g>
</g>
</svg>
